<svg width="36" height="36" viewBox="0 0 36 36" fill="none" xmlns="http://www.w3.org/2000/svg">
<path d="M17.2925 10.2925C17.683 9.90202 18.316 9.90202 18.7065 10.2925C19.0969 10.6831 19.097 11.3161 18.7065 11.7066L13.4136 16.9996H24.0005L24.103 17.0045C24.6071 17.0558 25.0005 17.4819 25.0005 17.9996C25.0005 18.5172 24.6071 18.9433 24.103 18.9947L24.0005 18.9996H13.4136L18.7065 24.2925C19.0969 24.6831 19.097 25.3161 18.7065 25.7066C18.3161 26.0971 17.683 26.097 17.2925 25.7066L10.2925 18.7066C9.90196 18.3161 9.90196 17.6831 10.2925 17.2925L17.2925 10.2925Z" fill="#181A1C"/>
</svg>
