<svg width="15" height="16" viewBox="0 0 15 16" fill="none" xmlns="http://www.w3.org/2000/svg">
<path d="M7.29297 0.292908C7.68349 -0.0976165 8.31651 -0.0976166 8.70703 0.292908C9.0974 0.683444 9.09751 1.3165 8.70703 1.70697L3.41406 6.99994H14.001L14.1035 7.00482C14.6076 7.05619 15.001 7.48229 15.001 7.99994C15.0009 8.51756 14.6076 8.9437 14.1035 8.99506L14.001 8.99994H3.41406L8.70703 14.2929C9.0974 14.6834 9.0975 15.3165 8.70703 15.707C8.31656 16.0974 7.68351 16.0973 7.29297 15.707L0.292969 8.70697C-0.0975555 8.31645 -0.0975555 7.68343 0.292969 7.29291L7.29297 0.292908Z" fill="#181A1C"/>
</svg>
